<?xml version="1.0" encoding="utf-8"?>
<svg viewBox="0 0 500 500" xmlns="http://www.w3.org/2000/svg">
  <path d="M 209.377 246.716 C 215.577 253.016 223.777 256.116 231.977 256.116 C 240.177 256.116 248.357 252.991 254.597 246.741 L 414.597 86.741 C 427.097 74.241 427.097 53.991 414.597 41.491 C 402.097 28.991 381.847 28.991 369.347 41.491 L 231.977 178.916 L 94.607 41.496 C 82.107 28.996 61.857 28.996 49.357 41.496 C 36.857 53.996 36.857 74.246 49.357 86.746 L 209.377 246.716 Z M 369.377 233.516 L 231.977 370.916 L 94.607 233.516 C 82.107 221.016 61.857 221.016 49.357 233.516 C 36.857 246.016 36.857 266.266 49.357 278.766 L 209.357 438.766 C 215.577 445.016 223.777 448.116 231.977 448.116 C 240.177 448.116 248.357 444.991 254.597 438.741 L 414.597 278.741 C 427.097 266.241 427.097 245.991 414.597 233.491 C 402.097 220.991 381.877 221.016 369.377 233.516 Z" style="fill: rgb(255, 255, 255);"/>
</svg>