<?xml version="1.0" encoding="utf-8"?>
<svg viewBox="0 0 500 500" xmlns="http://www.w3.org/2000/svg">
  <path d="M 8.84 49.148 C -1.964 38.34 -1.964 20.822 8.84 10.014 C 19.647 -0.785 37.165 -0.785 47.973 10.014 L 213.959 176.052 C 224.767 186.861 224.767 204.326 213.959 215.134 L 47.973 381.147 C 37.165 391.954 19.647 391.954 8.84 381.147 C -1.964 370.339 -1.964 352.872 8.84 342.064 L 155.25 195.594 L 8.84 49.148 Z M 471.105 333.937 C 486.409 333.937 498.773 346.301 498.773 361.606 C 498.773 376.91 486.409 389.274 471.105 389.274 L 222.087 389.274 C 206.783 389.274 194.418 376.91 194.418 361.606 C 194.418 346.301 206.783 333.937 222.087 333.937 L 471.105 333.937 Z" style="fill: rgb(255, 255, 255);"/>
</svg>